<svg width="16" height="16" viewBox="0 0 16 16" fill="none" xmlns="http://www.w3.org/2000/svg">
<path d="M8.0001 11.1765C9.16964 11.1765 10.1177 10.2284 10.1177 9.05881C10.1177 7.88927 9.16964 6.94116 8.0001 6.94116C6.83055 6.94116 5.88245 7.88927 5.88245 9.05881C5.88245 10.2284 6.83055 11.1765 8.0001 11.1765Z" stroke="black" stroke-width="1.5" stroke-linecap="round" stroke-linejoin="round"/>
<path d="M3.05886 4.82009L4.47063 4.82364C4.84505 4.82364 5.20414 4.6749 5.4689 4.41014C5.73365 4.14538 5.88239 3.78629 5.88239 3.41187C5.88239 3.22466 5.95676 3.04511 6.08914 2.91274C6.51261 2.48927 7.46859 2.70599 8.00004 2.70599C7.14636 2.6474 6.5 2.50009 6.08914 2.86135C5.93411 2.99767 5.86752 3.61631 5.69694 4.11133C5.64562 4.18832 5.27437 4.64605 4.74974 4.79578C4 4.79578 3.39724 4.82094 3.05886 4.82009ZM3.05886 4.82009C2.68444 4.82009 2.32535 4.97238 2.06059 5.23713C1.79583 5.50189 1.64709 5.86098 1.64709 6.2354V12.5884C1.64709 12.9628 1.79583 13.3219 2.06059 13.5866C2.32535 13.8514 2.68444 14.0001 3.05886 14.0001H12.9412C13.3156 14.0001 13.6747 13.8514 13.9395 13.5866C14.2042 13.3219 14.353 12.9628 14.353 12.5884V7.64717" stroke="black" stroke-width="1.5" stroke-linecap="round" stroke-linejoin="round"/>
<path d="M10.1177 4.11768H14.353" stroke="black" stroke-width="1.5" stroke-linecap="round" stroke-linejoin="round"/>
<path d="M12.2354 2V6.2353" stroke="black" stroke-width="1.5" stroke-linecap="round" stroke-linejoin="round"/>
</svg>
