<svg width="16" height="16" viewBox="0 0 16 16" fill="none" xmlns="http://www.w3.org/2000/svg">
<path d="M7.87506 8.49133C8.27339 8.49133 8.59631 8.16841 8.59631 7.77008C8.59631 7.37174 8.27339 7.04883 7.87506 7.04883C7.47672 7.04883 7.15381 7.37174 7.15381 7.77008C7.15381 8.16841 7.47672 8.49133 7.87506 8.49133Z" stroke="black" stroke-width="1.5" stroke-linecap="round" stroke-linejoin="round"/>
<path d="M7.87506 13.5399C8.27339 13.5399 8.59631 13.217 8.59631 12.8187C8.59631 12.4203 8.27339 12.0974 7.87506 12.0974C7.47672 12.0974 7.15381 12.4203 7.15381 12.8187C7.15381 13.217 7.47672 13.5399 7.87506 13.5399Z" stroke="black" stroke-width="1.5" stroke-linecap="round" stroke-linejoin="round"/>
<path d="M7.87506 3.4425C8.27339 3.4425 8.59631 3.11958 8.59631 2.72125C8.59631 2.32291 8.27339 2 7.87506 2C7.47672 2 7.15381 2.32291 7.15381 2.72125C7.15381 3.11958 7.47672 3.4425 7.87506 3.4425Z" stroke="black" stroke-width="1.5" stroke-linecap="round" stroke-linejoin="round"/>
</svg>
