<svg width="16" height="16" viewBox="0 0 16 16" fill="none" xmlns="http://www.w3.org/2000/svg">
<path d="M5.40042 4.75879H3.21017C2.82291 4.75879 2.45151 4.91263 2.17767 5.18646C1.90384 5.4603 1.75 5.8317 1.75 6.21896V12.7897C1.75 13.177 1.90384 13.5484 2.17767 13.8222C2.45151 14.096 2.82291 14.2499 3.21017 14.2499H9.78091C10.1682 14.2499 10.5396 14.096 10.8134 13.8222C11.0872 13.5484 11.2411 13.177 11.2411 12.7897V10.5995" stroke="black" stroke-width="1.5" stroke-linecap="round" stroke-linejoin="round"/>
<path d="M5.40039 10.5996H7.59064L13.7963 4.39386C14.0868 4.10342 14.25 3.70949 14.25 3.29874C14.25 2.88799 14.0868 2.49406 13.7963 2.20362C13.5059 1.91317 13.112 1.75 12.7012 1.75C12.2905 1.75 11.8965 1.91317 11.6061 2.20362L5.40039 8.40932V10.5996Z" stroke="black" stroke-width="1.5" stroke-linecap="round" stroke-linejoin="round"/>
<path d="M10.511 3.29883L12.7012 5.48908" stroke="black" stroke-width="1.5" stroke-linecap="round" stroke-linejoin="round"/>
</svg>
