<svg width="16" height="16" viewBox="0 0 16 16" fill="none" xmlns="http://www.w3.org/2000/svg">
<g clip-path="url(#clip0_435_1473)">
<path d="M6.65069 1.81092C6.99386 0.396361 9.00614 0.396361 9.34931 1.81092C9.4008 2.02342 9.50173 2.22077 9.64391 2.38689C9.78608 2.55301 9.96547 2.68322 10.1675 2.76691C10.3695 2.8506 10.5884 2.88541 10.8064 2.86851C11.0244 2.8516 11.2353 2.78347 11.422 2.66964C12.665 1.91242 14.0884 3.33503 13.3312 4.57881C13.2175 4.76542 13.1495 4.97622 13.1326 5.19407C13.1157 5.41192 13.1505 5.63068 13.2341 5.83256C13.3177 6.03444 13.4478 6.21374 13.6137 6.3559C13.7796 6.49806 13.9768 6.59906 14.1891 6.65069C15.6036 6.99386 15.6036 9.00614 14.1891 9.34931C13.9766 9.4008 13.7792 9.50173 13.6131 9.64391C13.447 9.78608 13.3168 9.96547 13.2331 10.1675C13.1494 10.3695 13.1146 10.5884 13.1315 10.8064C13.1484 11.0244 13.2165 11.2353 13.3304 11.422C14.0876 12.665 12.665 14.0884 11.4212 13.3312C11.2346 13.2175 11.0238 13.1495 10.8059 13.1326C10.5881 13.1157 10.3693 13.1505 10.1674 13.2341C9.96556 13.3177 9.78626 13.4478 9.6441 13.6137C9.50194 13.7796 9.40094 13.9768 9.34931 14.1891C9.00614 15.6036 6.99386 15.6036 6.65069 14.1891C6.59921 13.9766 6.49827 13.7792 6.35609 13.6131C6.21392 13.447 6.03453 13.3168 5.83253 13.2331C5.63053 13.1494 5.41162 13.1146 5.19362 13.1315C4.97562 13.1484 4.76469 13.2165 4.578 13.3304C3.33503 14.0876 1.91161 12.665 2.66883 11.4212C2.7825 11.2346 2.85053 11.0238 2.86739 10.8059C2.88425 10.5881 2.84947 10.3693 2.76588 10.1674C2.68229 9.96556 2.55224 9.78626 2.3863 9.6441C2.22037 9.50194 2.02323 9.40094 1.81092 9.34931C0.396361 9.00614 0.396361 6.99386 1.81092 6.65069C2.02342 6.59921 2.22077 6.49827 2.38689 6.35609C2.55301 6.21392 2.68322 6.03453 2.76691 5.83253C2.8506 5.63053 2.88541 5.41162 2.86851 5.19362C2.8516 4.97562 2.78347 4.76469 2.66964 4.578C1.91242 3.33503 3.33503 1.91161 4.57881 2.66883C5.38436 3.15861 6.42836 2.72522 6.65069 1.81092Z" stroke="black" stroke-width="1.5" stroke-linecap="round" stroke-linejoin="round"/>
<path d="M8.00004 10.4166C9.33473 10.4166 10.4167 9.33461 10.4167 7.99992C10.4167 6.66523 9.33473 5.58325 8.00004 5.58325C6.66535 5.58325 5.58337 6.66523 5.58337 7.99992C5.58337 9.33461 6.66535 10.4166 8.00004 10.4166Z" stroke="black" stroke-width="1.5" stroke-linecap="round" stroke-linejoin="round"/>
</g>
<defs>
<clipPath id="clip0_435_1473">
<rect width="16" height="16" fill="white"/>
</clipPath>
</defs>
</svg>
